<?xml version="1.0" encoding="UTF-8"?>
<svg id="_레이어_2" data-name="레이어 2" xmlns="http://www.w3.org/2000/svg" xmlns:xlink="http://www.w3.org/1999/xlink" viewBox="0 0 105.23 37.2">
  <defs>
    <style>
      .cls-1 {
        fill: url(#_무제_그라디언트_66);
      }

      .cls-2 {
        fill: url(#_무제_그라디언트_66-2);
      }

      .cls-3 {
        fill: url(#_무제_그라디언트_66-4);
      }

      .cls-4 {
        fill: url(#_무제_그라디언트_66-3);
      }

      .cls-5 {
        fill: #1a1917;
      }
    </style>
    <linearGradient id="_무제_그라디언트_66" data-name="무제 그라디언트 66" x1="63.79" y1="32.58" x2="63.79" y2="9.33" gradientUnits="userSpaceOnUse">
      <stop offset="0" stop-color="#1d4ed8"/>
      <stop offset="1" stop-color="#2563eb"/>
    </linearGradient>
    <linearGradient id="_무제_그라디언트_66-2" data-name="무제 그라디언트 66" x1="85.92" y1="32.44" x2="85.92" y2="9.44" xlink:href="#_무제_그라디언트_66"/>
    <linearGradient id="_무제_그라디언트_66-3" data-name="무제 그라디언트 66" x1="98.48" y1="29.59" x2="98.48" y2="0" xlink:href="#_무제_그라디언트_66"/>
    <linearGradient id="_무제_그라디언트_66-4" data-name="무제 그라디언트 66" x1="97.93" y1="37.2" x2="97.93" y2="31.29" xlink:href="#_무제_그라디언트_66"/>
  </defs>
  <g id="_레이어_1-2" data-name="레이어 1">
    <g>
      <path class="cls-5" d="M0,28.48h9.56v-2.72c-4.33-.14-8.28-1.85-8.28-8.3s4.31-8.3,8.85-8.3h3.89c4.52,0,8.85,1.57,8.85,8.3s-4.05,8.22-8.41,8.3v2.72h9.58v3.95H0v-3.95ZM13.65,21.7c3.03,0,4.31-1.21,4.31-4.23s-1.28-4.23-4.31-4.23h-3.16c-3.03,0-4.31,1.21-4.31,4.23s1.28,4.23,4.31,4.23h3.16Z"/>
      <path class="cls-5" d="M26.11,18.22h24.04v3.56h-24.04v-3.56ZM32.48,11.97c0,.98.16,1.23,1.12,1.23h15.09v3.81h-17.05c-2.4,0-4.07-.76-4.07-3.87v-3.7h4.91v2.52ZM48.69,33.42h-17.05c-2.4,0-4.07-.62-4.07-3.42v-3.51h16.21v-.65h-16.21v-3.11h21.12v6.9h-16.19c0,.45-.03.67.57.67h15.61v3.11Z"/>
      <path class="cls-1" d="M66.76,25.03c0,3.9-1.04,7.54-7.23,7.54s-7.23-3.65-7.23-7.54v-8.16c0-3.9,1.04-7.54,7.23-7.54s7.23,3.65,7.23,7.54v8.16ZM61.86,16.45c0-2.24-.89-3.17-2.32-3.17s-2.32.93-2.32,3.17v9c0,2.24.89,3.17,2.32,3.17s2.32-.93,2.32-3.17v-9ZM67.42,18.25h2.95v-8.81h4.91v23h-4.91v-10.24h-2.95v-3.95Z"/>
      <path class="cls-2" d="M83.35,13.4v12.73c0,1.57.68,2.36,2.56,2.36s2.58-.79,2.58-2.36v-2.08h4.91v1.46c0,4.88-1.96,6.93-7.49,6.93s-7.47-2.05-7.47-6.93V9.44h14.18v3.95h-9.27Z"/>
      <circle class="cls-5" cx="3.58" cy="11.69" r="3.58"/>
      <circle class="cls-5" cx="20.47" cy="11.69" r="3.58"/>
      <rect class="cls-5" x="11.53" y="13.58" width="1.1" height="3.09"/>
      <circle class="cls-5" cx="12.07" cy="17.46" r=".55"/>
      <rect class="cls-5" x="14.24" y="16.72" width="1.1" height="4.37" transform="translate(-8.67 23.99) rotate(-64.2)"/>
      <path class="cls-4" d="M95.48,14.76c0-2.26.52-3.84,2.12-5.59.89-.97,2.38-2.21,2.38-3.35,0-.92-.34-1.43-1.69-1.43s-2.75.72-3.9,2.35l-2.67-3.55c1.95-2.06,4.3-3.18,6.96-3.18,4.73,0,6.53,2.58,6.53,5.33,0,2.29-1.83,4.36-3.52,6.05-1.12,1.12-1.32,2.01-1.32,3.41v14.81h-4.9v-14.84Z"/>
      <path class="cls-3" d="M97.93,37.2c-1.92,0-2.95-1.26-2.95-2.95s1.03-2.95,2.95-2.95,2.95,1.26,2.95,2.95-1.03,2.95-2.95,2.95Z"/>
    </g>
  </g>
</svg>