<?xml version="1.0" encoding="UTF-8"?>
<svg id="_레이어_2" data-name="레이어 2" xmlns="http://www.w3.org/2000/svg" viewBox="0 0 101 24.46">
  <defs>
    <style>
      .cls-1 {
        fill: #2563eb;
      }
    </style>
  </defs>
  <g id="_레이어_1-2" data-name="레이어 1">
    <g>
      <path d="M0,19.48h9.52v-2.74c-4.32-.14-8.24-1.87-8.24-8.37S5.56,0,10.09,0h3.87c4.5,0,8.81,1.58,8.81,8.37s-4.03,8.28-8.37,8.37v2.74h9.54v3.99H0v-3.99ZM13.6,12.64c3.02,0,4.29-1.22,4.29-4.27s-1.27-4.27-4.29-4.27h-3.15c-3.02,0-4.29,1.22-4.29,4.27s1.27,4.27,4.29,4.27h3.15Z"/>
      <path d="M26.01,9.13h23.95v3.59h-23.95v-3.59ZM32.36,2.83c0,.99.15,1.24,1.12,1.24h15.03v3.85h-16.98c-2.39,0-4.06-.76-4.06-3.9V.28h4.89v2.54ZM48.5,24.46h-16.98c-2.39,0-4.06-.62-4.06-3.45v-3.53h16.15v-.65h-16.15v-3.14h21.03v6.96h-16.12c0,.45-.03.68.57.68h15.55v3.14Z"/>
      <path class="cls-1" d="M66.51,16.01c0,3.93-1.04,7.61-7.2,7.61s-7.2-3.68-7.2-7.61V7.78c0-3.93,1.04-7.61,7.2-7.61s7.2,3.68,7.2,7.61v8.23ZM61.62,7.35c0-2.26-.88-3.19-2.31-3.19s-2.31.93-2.31,3.19v9.08c0,2.26.88,3.2,2.31,3.2s2.31-.93,2.31-3.2V7.35ZM67.16,9.16h2.94V.28h4.89v23.19h-4.89v-10.32h-2.94v-3.99Z"/>
      <path class="cls-1" d="M83.03,4.27v12.84c0,1.58.68,2.38,2.55,2.38s2.57-.79,2.57-2.38v-2.09h4.89v1.47c0,4.92-1.95,6.98-7.46,6.98s-7.44-2.06-7.44-6.98V.28h14.12v3.99h-9.23ZM96.11.28h4.89v23.19h-4.89V.28Z"/>
    </g>
  </g>
</svg>